# xmcd
#
# Track frame offsets:
# 150
# 24443
# 41700
# 62573
# 73547
# 96560
# 100883
# 146842
# 176468
# 201120
# 217618
#
# Disc length: 3201 seconds
#
#
# Revision: 0
# Processed by: cddbd v1.5PL3 Copyright (c) Steve Scherf et al.
# Submitted via: FreeRIP 2.60 
#
DISCID=9a0c7f0b
DTITLE=Muddy Waters - The Lost Tapes
DYEAR=1999
DGENRE=Blues
TTITLE0=Honey Bee
TTITLE1=Hoochie Coochie Man
TTITLE2=Walking Thru The Park
TTITLE3=Trouble No More
TTITLE4=Just To Be With You
TTITLE5=Inro
TTITLE6=She's 19 Years Old
TTITLE7=Long Distance
TTITLE8=Mannish Boy
TTITLE9=Crawlin' Kingsnakes
TTITLE10=Got My Mojo Working
EXTD=
EXTT0=
EXTT1=
EXTT2=
EXTT3=
EXTT4=
EXTT5=
EXTT6=
EXTT7=
EXTT8=
EXTT9=
EXTT10=
PLAYORDER=
